<svg width="1920" height="1080" viewBox="0 0 1920 1080" fill="none" xmlns="http://www.w3.org/2000/svg">
<g id="Slide 16:9 - 1">
<rect width="1920" height="1080" fill="white"/>
<path id="test name" d="M90.5455 179.136V162.909H167V179.136H138.5V256H119.045V179.136H90.5455ZM200.92 257.364C193.739 257.364 187.557 255.909 182.375 253C177.223 250.061 173.254 245.909 170.466 240.545C167.678 235.152 166.284 228.773 166.284 221.409C166.284 214.227 167.678 207.924 170.466 202.5C173.254 197.076 177.178 192.848 182.239 189.818C187.33 186.788 193.299 185.273 200.148 185.273C204.754 185.273 209.042 186.015 213.011 187.5C217.011 188.955 220.496 191.152 223.466 194.091C226.466 197.03 228.799 200.727 230.466 205.182C232.133 209.606 232.966 214.788 232.966 220.727V226.045H174.011V214.045H214.739C214.739 211.258 214.133 208.788 212.92 206.636C211.708 204.485 210.027 202.803 207.875 201.591C205.754 200.348 203.284 199.727 200.466 199.727C197.527 199.727 194.92 200.409 192.648 201.773C190.405 203.106 188.648 204.909 187.375 207.182C186.102 209.424 185.451 211.924 185.42 214.682V226.091C185.42 229.545 186.057 232.53 187.33 235.045C188.633 237.561 190.466 239.5 192.83 240.864C195.193 242.227 197.996 242.909 201.239 242.909C203.39 242.909 205.36 242.606 207.148 242C208.936 241.394 210.466 240.485 211.739 239.273C213.011 238.061 213.981 236.576 214.648 234.818L232.557 236C231.648 240.303 229.784 244.061 226.966 247.273C224.178 250.455 220.572 252.939 216.148 254.727C211.754 256.485 206.678 257.364 200.92 257.364ZM303.693 206.091L285.966 207.182C285.663 205.667 285.011 204.303 284.011 203.091C283.011 201.848 281.693 200.864 280.057 200.136C278.451 199.379 276.527 199 274.284 199C271.284 199 268.754 199.636 266.693 200.909C264.633 202.152 263.602 203.818 263.602 205.909C263.602 207.576 264.269 208.985 265.602 210.136C266.936 211.288 269.223 212.212 272.466 212.909L285.102 215.455C291.89 216.848 296.951 219.091 300.284 222.182C303.617 225.273 305.284 229.333 305.284 234.364C305.284 238.939 303.936 242.955 301.239 246.409C298.572 249.864 294.905 252.561 290.239 254.5C285.602 256.409 280.254 257.364 274.193 257.364C264.951 257.364 257.587 255.439 252.102 251.591C246.648 247.712 243.451 242.439 242.511 235.773L261.557 234.773C262.133 237.591 263.527 239.742 265.739 241.227C267.951 242.682 270.784 243.409 274.239 243.409C277.633 243.409 280.36 242.758 282.42 241.455C284.511 240.121 285.572 238.409 285.602 236.318C285.572 234.561 284.83 233.121 283.375 232C281.92 230.848 279.678 229.97 276.648 229.364L264.557 226.955C257.739 225.591 252.663 223.227 249.33 219.864C246.027 216.5 244.375 212.212 244.375 207C244.375 202.515 245.587 198.652 248.011 195.409C250.466 192.167 253.905 189.667 258.33 187.909C262.784 186.152 267.996 185.273 273.966 185.273C282.784 185.273 289.723 187.136 294.784 190.864C299.875 194.591 302.845 199.667 303.693 206.091ZM354.614 186.182V200.727H312.568V186.182H354.614ZM322.114 169.455H341.477V234.545C341.477 236.333 341.75 237.727 342.295 238.727C342.841 239.697 343.598 240.379 344.568 240.773C345.568 241.167 346.72 241.364 348.023 241.364C348.932 241.364 349.841 241.288 350.75 241.136C351.659 240.955 352.356 240.818 352.841 240.727L355.886 255.136C354.917 255.439 353.553 255.788 351.795 256.182C350.038 256.606 347.902 256.864 345.386 256.955C340.72 257.136 336.629 256.515 333.114 255.091C329.629 253.667 326.917 251.455 324.977 248.455C323.038 245.455 322.083 241.667 322.114 237.091V169.455ZM416.216 215.636V256H396.852V186.182H415.307V198.5H416.125C417.67 194.439 420.261 191.227 423.898 188.864C427.534 186.47 431.943 185.273 437.125 185.273C441.973 185.273 446.201 186.333 449.807 188.455C453.413 190.576 456.216 193.606 458.216 197.545C460.216 201.455 461.216 206.121 461.216 211.545V256H441.852V215C441.883 210.727 440.792 207.394 438.58 205C436.367 202.576 433.322 201.364 429.443 201.364C426.837 201.364 424.534 201.924 422.534 203.045C420.564 204.167 419.019 205.803 417.898 207.955C416.807 210.076 416.246 212.636 416.216 215.636ZM496.386 257.318C491.932 257.318 487.962 256.545 484.477 255C480.992 253.424 478.235 251.106 476.205 248.045C474.205 244.955 473.205 241.106 473.205 236.5C473.205 232.621 473.917 229.364 475.341 226.727C476.765 224.091 478.705 221.97 481.159 220.364C483.614 218.758 486.402 217.545 489.523 216.727C492.674 215.909 495.977 215.333 499.432 215C503.492 214.576 506.765 214.182 509.25 213.818C511.735 213.424 513.538 212.848 514.659 212.091C515.78 211.333 516.341 210.212 516.341 208.727V208.455C516.341 205.576 515.432 203.348 513.614 201.773C511.826 200.197 509.28 199.409 505.977 199.409C502.492 199.409 499.72 200.182 497.659 201.727C495.598 203.242 494.235 205.152 493.568 207.455L475.659 206C476.568 201.758 478.356 198.091 481.023 195C483.689 191.879 487.129 189.485 491.341 187.818C495.583 186.121 500.492 185.273 506.068 185.273C509.947 185.273 513.659 185.727 517.205 186.636C520.78 187.545 523.947 188.955 526.705 190.864C529.492 192.773 531.689 195.227 533.295 198.227C534.902 201.197 535.705 204.758 535.705 208.909V256H517.341V246.318H516.795C515.674 248.5 514.174 250.424 512.295 252.091C510.417 253.727 508.159 255.015 505.523 255.955C502.886 256.864 499.841 257.318 496.386 257.318ZM501.932 243.955C504.78 243.955 507.295 243.394 509.477 242.273C511.659 241.121 513.371 239.576 514.614 237.636C515.856 235.697 516.477 233.5 516.477 231.045V223.636C515.871 224.03 515.038 224.394 513.977 224.727C512.947 225.03 511.78 225.318 510.477 225.591C509.174 225.833 507.871 226.061 506.568 226.273C505.265 226.455 504.083 226.621 503.023 226.773C500.75 227.106 498.765 227.636 497.068 228.364C495.371 229.091 494.053 230.076 493.114 231.318C492.174 232.53 491.705 234.045 491.705 235.864C491.705 238.5 492.659 240.515 494.568 241.909C496.508 243.273 498.962 243.955 501.932 243.955ZM550.727 256V186.182H569.182V198.5H570C571.455 194.409 573.879 191.182 577.273 188.818C580.667 186.455 584.727 185.273 589.455 185.273C594.242 185.273 598.318 186.47 601.682 188.864C605.045 191.227 607.288 194.439 608.409 198.5H609.136C610.561 194.5 613.136 191.303 616.864 188.909C620.621 186.485 625.061 185.273 630.182 185.273C636.697 185.273 641.985 187.348 646.045 191.5C650.136 195.621 652.182 201.47 652.182 209.045V256H632.864V212.864C632.864 208.985 631.833 206.076 629.773 204.136C627.712 202.197 625.136 201.227 622.045 201.227C618.53 201.227 615.788 202.348 613.818 204.591C611.848 206.803 610.864 209.727 610.864 213.364V256H592.091V212.455C592.091 209.03 591.106 206.303 589.136 204.273C587.197 202.242 584.636 201.227 581.455 201.227C579.303 201.227 577.364 201.773 575.636 202.864C573.939 203.924 572.591 205.424 571.591 207.364C570.591 209.273 570.091 211.515 570.091 214.091V256H550.727ZM699.295 257.364C692.114 257.364 685.932 255.909 680.75 253C675.598 250.061 671.629 245.909 668.841 240.545C666.053 235.152 664.659 228.773 664.659 221.409C664.659 214.227 666.053 207.924 668.841 202.5C671.629 197.076 675.553 192.848 680.614 189.818C685.705 186.788 691.674 185.273 698.523 185.273C703.129 185.273 707.417 186.015 711.386 187.5C715.386 188.955 718.871 191.152 721.841 194.091C724.841 197.03 727.174 200.727 728.841 205.182C730.508 209.606 731.341 214.788 731.341 220.727V226.045H672.386V214.045H713.114C713.114 211.258 712.508 208.788 711.295 206.636C710.083 204.485 708.402 202.803 706.25 201.591C704.129 200.348 701.659 199.727 698.841 199.727C695.902 199.727 693.295 200.409 691.023 201.773C688.78 203.106 687.023 204.909 685.75 207.182C684.477 209.424 683.826 211.924 683.795 214.682V226.091C683.795 229.545 684.432 232.53 685.705 235.045C687.008 237.561 688.841 239.5 691.205 240.864C693.568 242.227 696.371 242.909 699.614 242.909C701.765 242.909 703.735 242.606 705.523 242C707.311 241.394 708.841 240.485 710.114 239.273C711.386 238.061 712.356 236.576 713.023 234.818L730.932 236C730.023 240.303 728.159 244.061 725.341 247.273C722.553 250.455 718.947 252.939 714.523 254.727C710.129 256.485 705.053 257.364 699.295 257.364Z" fill="black"/>
<rect id="color" x="112" y="360" width="987" height="642" rx="53" fill="#FFBABA"/>
<rect id="color2" x="1159" y="72" width="629" height="930" rx="53" fill="#58E4E6"/>
</g>
</svg>
